<mxfile modified="2022-04-24T12:51:51.443Z" host="app.diagrams.net" agent="5.0 (Windows NT 10.0; Win64; x64) AppleWebKit/537.36 (KHTML, like Gecko) Chrome/92.0.4515.159 Safari/537.36" etag="IWaRwBgKHOCWsVaXP809" version="17.4.6" type="github">
  <diagram id="Ht1M8jgEwFfnCIfOTk4-" name="Page-1">
    <mxGraphModel dx="2062" dy="1122" grid="1" gridSize="10" guides="1" tooltips="1" connect="1" arrows="1" fold="1" page="1" pageScale="1" pageWidth="1169" pageHeight="827" math="0" shadow="0">
      <root>
        <mxCell id="0" />
        <mxCell id="1" parent="0" />
        <mxCell id="Z6v5LxoLlZtQmqDHIeDU-63" value="Traefik" style="rounded=0;whiteSpace=wrap;html=1;fontColor=#000000;dashed=1;" vertex="1" parent="1">
          <mxGeometry x="320" y="470" width="440" height="90" as="geometry" />
        </mxCell>
        <mxCell id="Z6v5LxoLlZtQmqDHIeDU-10" value="" style="group" vertex="1" connectable="0" parent="1">
          <mxGeometry x="50" y="50" width="60" height="70" as="geometry" />
        </mxCell>
        <mxCell id="Z6v5LxoLlZtQmqDHIeDU-4" value="&lt;font color=&quot;#ffffff&quot;&gt;NS&lt;/font&gt;" style="sketch=0;html=1;dashed=0;whitespace=wrap;fillColor=#2875E2;strokeColor=#ffffff;points=[[0.005,0.63,0],[0.1,0.2,0],[0.9,0.2,0],[0.5,0,0],[0.995,0.63,0],[0.72,0.99,0],[0.5,1,0],[0.28,0.99,0]];shape=mxgraph.kubernetes.icon;prIcon=ns" vertex="1" parent="Z6v5LxoLlZtQmqDHIeDU-10">
          <mxGeometry x="5" width="50" height="48" as="geometry" />
        </mxCell>
        <mxCell id="Z6v5LxoLlZtQmqDHIeDU-9" value="clipper" style="text;html=1;strokeColor=none;fillColor=none;align=center;verticalAlign=middle;whiteSpace=wrap;rounded=0;" vertex="1" parent="Z6v5LxoLlZtQmqDHIeDU-10">
          <mxGeometry y="40" width="60" height="30" as="geometry" />
        </mxCell>
        <mxCell id="Z6v5LxoLlZtQmqDHIeDU-30" value="" style="group" vertex="1" connectable="0" parent="1">
          <mxGeometry x="270" y="290" width="115" height="69" as="geometry" />
        </mxCell>
        <mxCell id="Z6v5LxoLlZtQmqDHIeDU-27" value="" style="sketch=0;html=1;dashed=0;whitespace=wrap;fillColor=#2875E2;strokeColor=#ffffff;points=[[0.005,0.63,0],[0.1,0.2,0],[0.9,0.2,0],[0.5,0,0],[0.995,0.63,0],[0.72,0.99,0],[0.5,1,0],[0.28,0.99,0]];shape=mxgraph.kubernetes.icon;prIcon=sts;fontColor=#000000;" vertex="1" parent="Z6v5LxoLlZtQmqDHIeDU-30">
          <mxGeometry x="5" width="50" height="48" as="geometry" />
        </mxCell>
        <mxCell id="Z6v5LxoLlZtQmqDHIeDU-28" value="StatefulSet" style="text;html=1;strokeColor=none;fillColor=none;align=center;verticalAlign=middle;whiteSpace=wrap;rounded=0;fontColor=#000000;" vertex="1" parent="Z6v5LxoLlZtQmqDHIeDU-30">
          <mxGeometry y="39" width="60" height="30" as="geometry" />
        </mxCell>
        <mxCell id="Z6v5LxoLlZtQmqDHIeDU-32" style="edgeStyle=orthogonalEdgeStyle;rounded=0;orthogonalLoop=1;jettySize=auto;html=1;exitX=0.5;exitY=0;exitDx=0;exitDy=0;exitPerimeter=0;fontColor=#000000;entryX=0.5;entryY=0;entryDx=0;entryDy=0;entryPerimeter=0;strokeWidth=1;fillColor=#dae8fc;strokeColor=#6c8ebf;dashed=1;" edge="1" parent="1" source="Z6v5LxoLlZtQmqDHIeDU-27" target="Z6v5LxoLlZtQmqDHIeDU-24">
          <mxGeometry relative="1" as="geometry" />
        </mxCell>
        <mxCell id="Z6v5LxoLlZtQmqDHIeDU-44" value="Service" style="text;html=1;strokeColor=none;fillColor=none;align=center;verticalAlign=middle;whiteSpace=wrap;rounded=0;fontColor=#000000;" vertex="1" parent="1">
          <mxGeometry x="395" y="430" width="60" height="30" as="geometry" />
        </mxCell>
        <mxCell id="Z6v5LxoLlZtQmqDHIeDU-45" value="" style="sketch=0;html=1;dashed=0;whitespace=wrap;fillColor=#2875E2;strokeColor=#ffffff;points=[[0.005,0.63,0],[0.1,0.2,0],[0.9,0.2,0],[0.5,0,0],[0.995,0.63,0],[0.72,0.99,0],[0.5,1,0],[0.28,0.99,0]];shape=mxgraph.kubernetes.icon;prIcon=ing;fontColor=#000000;" vertex="1" parent="1">
          <mxGeometry x="400" y="492" width="50" height="48" as="geometry" />
        </mxCell>
        <mxCell id="Z6v5LxoLlZtQmqDHIeDU-50" style="edgeStyle=orthogonalEdgeStyle;rounded=0;orthogonalLoop=1;jettySize=auto;html=1;exitX=0.5;exitY=0;exitDx=0;exitDy=0;exitPerimeter=0;entryX=0.005;entryY=0.63;entryDx=0;entryDy=0;entryPerimeter=0;fontColor=#000000;strokeWidth=1;fillColor=#1ba1e2;strokeColor=#006EAF;" edge="1" parent="1" source="Z6v5LxoLlZtQmqDHIeDU-46" target="Z6v5LxoLlZtQmqDHIeDU-24">
          <mxGeometry relative="1" as="geometry">
            <Array as="points">
              <mxPoint x="425" y="380" />
              <mxPoint x="360" y="380" />
              <mxPoint x="360" y="320" />
            </Array>
          </mxGeometry>
        </mxCell>
        <mxCell id="Z6v5LxoLlZtQmqDHIeDU-46" value="" style="sketch=0;html=1;dashed=0;whitespace=wrap;fillColor=#2875E2;strokeColor=#ffffff;points=[[0.005,0.63,0],[0.1,0.2,0],[0.9,0.2,0],[0.5,0,0],[0.995,0.63,0],[0.72,0.99,0],[0.5,1,0],[0.28,0.99,0]];shape=mxgraph.kubernetes.icon;prIcon=svc;fontColor=#000000;" vertex="1" parent="1">
          <mxGeometry x="400" y="390" width="50" height="48" as="geometry" />
        </mxCell>
        <mxCell id="Z6v5LxoLlZtQmqDHIeDU-24" value="" style="sketch=0;html=1;dashed=0;whitespace=wrap;fillColor=#2875E2;strokeColor=#ffffff;points=[[0.005,0.63,0],[0.1,0.2,0],[0.9,0.2,0],[0.5,0,0],[0.995,0.63,0],[0.72,0.99,0],[0.5,1,0],[0.28,0.99,0]];shape=mxgraph.kubernetes.icon;prIcon=pod;fontColor=#000000;" vertex="1" parent="1">
          <mxGeometry x="400" y="290" width="50" height="48" as="geometry" />
        </mxCell>
        <mxCell id="Z6v5LxoLlZtQmqDHIeDU-25" value="Pod" style="text;html=1;strokeColor=none;fillColor=none;align=center;verticalAlign=middle;whiteSpace=wrap;rounded=0;fontColor=#000000;" vertex="1" parent="1">
          <mxGeometry x="395" y="329" width="60" height="30" as="geometry" />
        </mxCell>
        <mxCell id="Z6v5LxoLlZtQmqDHIeDU-48" value="Ingress" style="text;html=1;strokeColor=none;fillColor=none;align=center;verticalAlign=middle;whiteSpace=wrap;rounded=0;fontColor=#000000;" vertex="1" parent="1">
          <mxGeometry x="395" y="530" width="60" height="30" as="geometry" />
        </mxCell>
        <mxCell id="Z6v5LxoLlZtQmqDHIeDU-49" value="" style="endArrow=classic;html=1;rounded=0;fontColor=#000000;strokeWidth=1;exitX=0.5;exitY=0;exitDx=0;exitDy=0;exitPerimeter=0;entryX=0.005;entryY=0.63;entryDx=0;entryDy=0;entryPerimeter=0;fillColor=#1ba1e2;strokeColor=#006EAF;" edge="1" parent="1" source="Z6v5LxoLlZtQmqDHIeDU-45" target="Z6v5LxoLlZtQmqDHIeDU-46">
          <mxGeometry width="50" height="50" relative="1" as="geometry">
            <mxPoint x="490" y="570" as="sourcePoint" />
            <mxPoint x="540" y="520" as="targetPoint" />
            <Array as="points">
              <mxPoint x="425" y="480" />
              <mxPoint x="360" y="480" />
              <mxPoint x="360" y="420" />
            </Array>
          </mxGeometry>
        </mxCell>
        <mxCell id="Z6v5LxoLlZtQmqDHIeDU-51" value="" style="group" vertex="1" connectable="0" parent="1">
          <mxGeometry x="540" y="290" width="115" height="69" as="geometry" />
        </mxCell>
        <mxCell id="Z6v5LxoLlZtQmqDHIeDU-52" value="" style="sketch=0;html=1;dashed=0;whitespace=wrap;fillColor=#2875E2;strokeColor=#ffffff;points=[[0.005,0.63,0],[0.1,0.2,0],[0.9,0.2,0],[0.5,0,0],[0.995,0.63,0],[0.72,0.99,0],[0.5,1,0],[0.28,0.99,0]];shape=mxgraph.kubernetes.icon;prIcon=sts;fontColor=#000000;" vertex="1" parent="Z6v5LxoLlZtQmqDHIeDU-51">
          <mxGeometry x="5" width="50" height="48" as="geometry" />
        </mxCell>
        <mxCell id="Z6v5LxoLlZtQmqDHIeDU-53" value="StatefulSet" style="text;html=1;strokeColor=none;fillColor=none;align=center;verticalAlign=middle;whiteSpace=wrap;rounded=0;fontColor=#000000;" vertex="1" parent="Z6v5LxoLlZtQmqDHIeDU-51">
          <mxGeometry y="39" width="60" height="30" as="geometry" />
        </mxCell>
        <mxCell id="Z6v5LxoLlZtQmqDHIeDU-54" style="edgeStyle=orthogonalEdgeStyle;rounded=0;orthogonalLoop=1;jettySize=auto;html=1;exitX=0.5;exitY=0;exitDx=0;exitDy=0;exitPerimeter=0;fontColor=#000000;entryX=0.5;entryY=0;entryDx=0;entryDy=0;entryPerimeter=0;strokeWidth=1;fillColor=#dae8fc;strokeColor=#6c8ebf;dashed=1;" edge="1" parent="1" source="Z6v5LxoLlZtQmqDHIeDU-52" target="Z6v5LxoLlZtQmqDHIeDU-59">
          <mxGeometry relative="1" as="geometry" />
        </mxCell>
        <mxCell id="Z6v5LxoLlZtQmqDHIeDU-55" value="Service" style="text;html=1;strokeColor=none;fillColor=none;align=center;verticalAlign=middle;whiteSpace=wrap;rounded=0;fontColor=#000000;" vertex="1" parent="1">
          <mxGeometry x="665" y="430" width="60" height="30" as="geometry" />
        </mxCell>
        <mxCell id="Z6v5LxoLlZtQmqDHIeDU-56" value="" style="sketch=0;html=1;dashed=0;whitespace=wrap;fillColor=#2875E2;strokeColor=#ffffff;points=[[0.005,0.63,0],[0.1,0.2,0],[0.9,0.2,0],[0.5,0,0],[0.995,0.63,0],[0.72,0.99,0],[0.5,1,0],[0.28,0.99,0]];shape=mxgraph.kubernetes.icon;prIcon=ing;fontColor=#000000;" vertex="1" parent="1">
          <mxGeometry x="670" y="492" width="50" height="48" as="geometry" />
        </mxCell>
        <mxCell id="Z6v5LxoLlZtQmqDHIeDU-57" style="edgeStyle=orthogonalEdgeStyle;rounded=0;orthogonalLoop=1;jettySize=auto;html=1;exitX=0.5;exitY=0;exitDx=0;exitDy=0;exitPerimeter=0;entryX=0.005;entryY=0.63;entryDx=0;entryDy=0;entryPerimeter=0;fontColor=#000000;strokeWidth=1;fillColor=#1ba1e2;strokeColor=#006EAF;" edge="1" parent="1" source="Z6v5LxoLlZtQmqDHIeDU-58" target="Z6v5LxoLlZtQmqDHIeDU-59">
          <mxGeometry relative="1" as="geometry">
            <Array as="points">
              <mxPoint x="695" y="380" />
              <mxPoint x="630" y="380" />
              <mxPoint x="630" y="320" />
            </Array>
          </mxGeometry>
        </mxCell>
        <mxCell id="Z6v5LxoLlZtQmqDHIeDU-58" value="" style="sketch=0;html=1;dashed=0;whitespace=wrap;fillColor=#2875E2;strokeColor=#ffffff;points=[[0.005,0.63,0],[0.1,0.2,0],[0.9,0.2,0],[0.5,0,0],[0.995,0.63,0],[0.72,0.99,0],[0.5,1,0],[0.28,0.99,0]];shape=mxgraph.kubernetes.icon;prIcon=svc;fontColor=#000000;" vertex="1" parent="1">
          <mxGeometry x="670" y="390" width="50" height="48" as="geometry" />
        </mxCell>
        <mxCell id="Z6v5LxoLlZtQmqDHIeDU-59" value="" style="sketch=0;html=1;dashed=0;whitespace=wrap;fillColor=#2875E2;strokeColor=#ffffff;points=[[0.005,0.63,0],[0.1,0.2,0],[0.9,0.2,0],[0.5,0,0],[0.995,0.63,0],[0.72,0.99,0],[0.5,1,0],[0.28,0.99,0]];shape=mxgraph.kubernetes.icon;prIcon=pod;fontColor=#000000;" vertex="1" parent="1">
          <mxGeometry x="670" y="290" width="50" height="48" as="geometry" />
        </mxCell>
        <mxCell id="Z6v5LxoLlZtQmqDHIeDU-60" value="Pod" style="text;html=1;strokeColor=none;fillColor=none;align=center;verticalAlign=middle;whiteSpace=wrap;rounded=0;fontColor=#000000;" vertex="1" parent="1">
          <mxGeometry x="665" y="329" width="60" height="30" as="geometry" />
        </mxCell>
        <mxCell id="Z6v5LxoLlZtQmqDHIeDU-61" value="Ingress" style="text;html=1;strokeColor=none;fillColor=none;align=center;verticalAlign=middle;whiteSpace=wrap;rounded=0;fontColor=#000000;" vertex="1" parent="1">
          <mxGeometry x="665" y="530" width="60" height="30" as="geometry" />
        </mxCell>
        <mxCell id="Z6v5LxoLlZtQmqDHIeDU-62" value="" style="endArrow=classic;html=1;rounded=0;fontColor=#000000;strokeWidth=1;exitX=0.5;exitY=0;exitDx=0;exitDy=0;exitPerimeter=0;entryX=0.005;entryY=0.63;entryDx=0;entryDy=0;entryPerimeter=0;fillColor=#1ba1e2;strokeColor=#006EAF;" edge="1" parent="1" source="Z6v5LxoLlZtQmqDHIeDU-56" target="Z6v5LxoLlZtQmqDHIeDU-58">
          <mxGeometry width="50" height="50" relative="1" as="geometry">
            <mxPoint x="760" y="570" as="sourcePoint" />
            <mxPoint x="810" y="520" as="targetPoint" />
            <Array as="points">
              <mxPoint x="695" y="480" />
              <mxPoint x="630" y="480" />
              <mxPoint x="630" y="420" />
            </Array>
          </mxGeometry>
        </mxCell>
      </root>
    </mxGraphModel>
  </diagram>
</mxfile>
